<svg xmlns="http://www.w3.org/2000/svg" xmlns:xlink="http://www.w3.org/1999/xlink" width="330" zoomAndPan="magnify" viewBox="0 0 247.5 98.249997" height="131" preserveAspectRatio="xMidYMid meet" version="1.0"><path fill="#ffffff" d="M 108.011719 25.53125 C 94.140625 30.222656 86.308594 41.984375 87.355469 56.5 C 88.921875 77.9375 116.515625 89.179688 131.28125 74.441406 C 136.28125 69.453125 137.621094 66.625 139.785156 56.351562 C 140.15625 54.5625 140.53125 54.339844 143.140625 54.339844 C 144.78125 54.339844 146.125 54.488281 146.125 54.714844 C 146.125 56.203125 142.394531 63.796875 139.710938 67.890625 C 131.207031 80.617188 121.214844 85.308594 108.609375 82.332031 C 98.464844 79.949219 92.871094 75.929688 86.757812 66.625 C 82.28125 59.699219 79.746094 57.167969 75.644531 55.308594 C 72.960938 54.117188 69.902344 53.96875 41.710938 53.894531 L 10.757812 53.894531 L 41.710938 54.265625 C 74.300781 54.714844 73.929688 54.714844 79.300781 58.359375 C 80.492188 59.105469 83.175781 62.53125 85.414062 65.878906 C 90.261719 73.398438 93.769531 76.894531 99.210938 79.652344 C 108.984375 84.636719 118.679688 85.308594 126.285156 81.585938 C 133.519531 78.011719 143.289062 66.027344 146.125 57.167969 L 146.945312 54.339844 L 182.148438 54.117188 L 217.351562 53.96875 L 182.222656 53.746094 L 147.167969 53.597656 L 147.46875 49.203125 C 148.511719 34.613281 136.355469 23.820312 119.125 23.820312 C 114.726562 23.820312 111.519531 24.339844 108.011719 25.53125 Z M 132.253906 27.023438 C 138.292969 29.777344 141.722656 32.753906 144.183594 37.21875 C 146.347656 41.238281 147.46875 48.015625 146.570312 51.660156 C 146.199219 53.300781 145.675781 53.597656 143.140625 53.597656 C 140.234375 53.597656 140.234375 53.597656 139.785156 50.023438 C 138.515625 40.71875 134.117188 33.574219 127.703125 30.445312 C 124.867188 29.03125 122.929688 28.660156 118.082031 28.660156 C 112.636719 28.660156 111.519531 28.957031 106.894531 31.265625 C 103.539062 32.976562 101.003906 34.914062 99.4375 36.996094 C 94.066406 43.992188 91.753906 55.605469 94.289062 62.304688 C 97.945312 71.835938 110.398438 79.054688 119.199219 76.671875 C 125.613281 74.960938 131.804688 67.070312 133.59375 58.359375 C 134.339844 54.488281 134.488281 54.339844 136.875 54.339844 C 139.261719 54.339844 139.335938 54.414062 138.964844 56.722656 C 136.875 68.929688 130.089844 77.417969 120.617188 79.652344 C 108.757812 82.554688 96.15625 76.597656 90.785156 65.65625 C 88.546875 61.113281 88.324219 60.148438 88.324219 53.597656 C 88.324219 47.195312 88.546875 46.003906 90.710938 41.539062 C 96.15625 29.925781 106.296875 24.339844 120.839844 24.789062 C 126.585938 25.011719 128.746094 25.457031 132.253906 27.023438 Z M 127.179688 31.117188 C 133.667969 34.390625 137.546875 40.71875 139.039062 50.394531 L 139.5625 53.597656 L 136.949219 53.597656 C 134.414062 53.597656 134.339844 53.523438 133.894531 49.800781 C 132.328125 38.410156 124.199219 32.082031 113.757812 34.242188 C 105.253906 35.953125 99.734375 42.953125 99.734375 51.960938 C 99.660156 63.644531 106.222656 71.460938 116.144531 71.460938 C 124.496094 71.460938 129.34375 67.070312 130.386719 58.507812 C 130.6875 55.679688 131.207031 54.640625 132.179688 54.488281 C 133.371094 54.265625 133.445312 54.5625 133 57.09375 C 130.761719 69.675781 122.257812 77.789062 113.011719 76.226562 C 106.296875 75.109375 99.734375 70.644531 96.304688 64.910156 C 94.515625 61.785156 94.289062 60.667969 94.289062 55.085938 C 94.363281 42.429688 100.332031 33.722656 111.445312 30 C 115.621094 28.660156 123.378906 29.179688 127.179688 31.117188 Z M 125.765625 36.921875 C 129.34375 39.007812 132.402344 44.367188 133.148438 50.023438 C 133.59375 53.222656 133.519531 53.597656 132.253906 53.597656 C 131.207031 53.597656 130.460938 52.554688 129.492188 49.875 C 128 45.707031 124.570312 41.386719 121.4375 39.75 C 118.753906 38.410156 113.085938 38.410156 110.398438 39.824219 C 105.925781 42.058594 102.867188 47.640625 102.867188 53.300781 C 102.867188 61.488281 113.011719 68.039062 120.019531 64.390625 C 122.183594 63.273438 125.242188 58.507812 125.242188 56.203125 C 125.242188 55.457031 125.988281 55.085938 127.480469 55.085938 C 129.566406 55.085938 129.714844 55.234375 129.714844 57.914062 C 129.714844 61.414062 127.03125 66.773438 124.347656 68.78125 C 121.8125 70.570312 114.578125 71.238281 110.773438 69.972656 C 107.417969 68.855469 102.644531 63.570312 101.449219 59.476562 C 98.914062 51.140625 101.449219 41.6875 107.265625 37.667969 C 112.636719 33.945312 120.019531 33.648438 125.765625 36.921875 Z M 123.378906 41.984375 C 126.0625 44.070312 129.714844 50.394531 129.714844 53 C 129.714844 53.96875 129.121094 54.339844 127.554688 54.339844 C 125.613281 54.339844 125.390625 54.042969 125.019531 51.214844 C 124.496094 47.417969 120.46875 43.175781 117.410156 43.175781 C 112.339844 43.175781 108.609375 47.640625 108.609375 53.523438 C 108.609375 56.277344 108.984375 57.167969 110.996094 58.957031 C 113.011719 60.742188 113.980469 61.113281 116.515625 60.890625 C 119.125 60.742188 119.871094 60.222656 121.140625 58.285156 C 122.40625 56.203125 124.496094 54.9375 124.496094 56.203125 C 124.496094 57.765625 122.109375 61.785156 120.394531 63.125 C 117.785156 65.210938 114.5 65.210938 110.324219 63.050781 C 105.625 60.667969 104.058594 58.210938 103.984375 53 C 103.984375 47.714844 105.851562 43.769531 109.503906 41.238281 C 113.234375 38.632812 119.351562 38.933594 123.378906 41.984375 Z M 120.019531 45.035156 C 121.214844 45.707031 122.707031 47.195312 123.378906 48.386719 C 124.867188 51.214844 124.867188 55.085938 123.378906 55.085938 C 122.78125 55.085938 122.257812 54.5625 122.257812 53.96875 C 122.257812 53.300781 121.734375 51.808594 121.140625 50.617188 C 120.246094 48.90625 119.425781 48.386719 117.785156 48.386719 C 116.589844 48.386719 115.097656 48.90625 114.5 49.578125 C 111.816406 52.257812 114.128906 55.828125 118.679688 55.828125 C 121.8125 55.828125 122.035156 56.203125 120.320312 58.660156 C 119.050781 60.445312 115.097656 60.890625 112.414062 59.476562 C 108.164062 57.246094 108.3125 49.503906 112.636719 45.855469 C 115.246094 43.621094 116.964844 43.472656 120.019531 45.035156 Z M 120.320312 50.769531 C 122.40625 53.746094 121.886719 55.085938 118.679688 55.085938 C 115.695312 55.085938 114.054688 54.042969 114.054688 52.109375 C 114.054688 48.980469 118.453125 48.089844 120.320312 50.769531 Z M 120.320312 50.769531 " fill-opacity="1" fill-rule="nonzero"/></svg>