<?xml version="1.0" standalone="no"?>
<!DOCTYPE svg PUBLIC "-//W3C//DTD SVG 20010904//EN"
 "http://www.w3.org/TR/2001/REC-SVG-20010904/DTD/svg10.dtd">
<svg version="1.0" xmlns="http://www.w3.org/2000/svg"
 width="330.000000pt" height="131.000000pt" viewBox="0 0 330.000000 131.000000"
 preserveAspectRatio="xMidYMid meet">

<g transform="translate(0.000000,131.000000) scale(0.100000,-0.100000)"
fill="#000000" stroke="none">
<path d="M1439 967 c-186 -63 -291 -221 -277 -416 21 -288 391 -439 589 -241
67 67 85 105 114 243 5 24 10 27 45 27 22 0 40 -2 40 -5 0 -20 -50 -122 -86
-177 -114 -171 -248 -234 -417 -194 -136 32 -211 86 -293 211 -60 93 -94 127
-149 152 -36 16 -77 18 -455 19 l-415 0 415 -5 c437 -6 432 -6 504 -55 16 -10
52 -56 82 -101 65 -101 112 -148 185 -185 131 -67 261 -76 363 -26 97 48 228
209 266 328 l11 38 472 3 472 2 -471 3 -470 2 4 59 c14 196 -149 341 -380 341
-59 0 -102 -7 -149 -23z m325 -20 c81 -37 127 -77 160 -137 29 -54 44 -145 32
-194 -5 -22 -12 -26 -46 -26 -39 0 -39 0 -45 48 -17 125 -76 221 -162 263 -38
19 -64 24 -129 24 -73 0 -88 -4 -150 -35 -45 -23 -79 -49 -100 -77 -72 -94
-103 -250 -69 -340 49 -128 216 -225 334 -193 86 23 169 129 193 246 10 52 12
54 44 54 32 0 33 -1 28 -32 -28 -164 -119 -278 -246 -308 -159 -39 -328 41
-400 188 -30 61 -33 74 -33 162 0 86 3 102 32 162 73 156 209 231 404 225 77
-3 106 -9 153 -30z m-68 -55 c87 -44 139 -129 159 -259 l7 -43 -35 0 c-34 0
-35 1 -41 51 -21 153 -130 238 -270 209 -114 -23 -188 -117 -188 -238 -1 -157
87 -262 220 -262 112 0 177 59 191 174 4 38 11 52 24 54 16 3 17 -1 11 -35
-30 -169 -144 -278 -268 -257 -90 15 -178 75 -224 152 -24 42 -27 57 -27 132
1 170 81 287 230 337 56 18 160 11 211 -15z m-19 -78 c48 -28 89 -100 99 -176
6 -43 5 -48 -12 -48 -14 0 -24 14 -37 50 -20 56 -66 114 -108 136 -36 18 -112
18 -148 -1 -60 -30 -101 -105 -101 -181 0 -110 136 -198 230 -149 29 15 70 79
70 110 0 10 10 15 30 15 28 0 30 -2 30 -38 0 -47 -36 -119 -72 -146 -34 -24
-131 -33 -182 -16 -45 15 -109 86 -125 141 -34 112 0 239 78 293 72 50 171 54
248 10z m-32 -68 c36 -28 85 -113 85 -148 0 -13 -8 -18 -29 -18 -26 0 -29 4
-34 42 -7 51 -61 108 -102 108 -68 0 -118 -60 -118 -139 0 -37 5 -49 32 -73
27 -24 40 -29 74 -26 35 2 45 9 62 35 17 28 45 45 45 28 0 -21 -32 -75 -55
-93 -35 -28 -79 -28 -135 1 -63 32 -84 65 -85 135 0 71 25 124 74 158 50 35
132 31 186 -10z m-45 -41 c16 -9 36 -29 45 -45 20 -38 20 -90 0 -90 -8 0 -15
7 -15 15 0 9 -7 29 -15 45 -12 23 -23 30 -45 30 -16 0 -36 -7 -44 -16 -36 -36
-5 -84 56 -84 42 0 45 -5 22 -38 -17 -24 -70 -30 -106 -11 -57 30 -55 134 3
183 35 30 58 32 99 11z m4 -77 c28 -40 21 -58 -22 -58 -40 0 -62 14 -62 40 0
42 59 54 84 18z"/>
</g>
</svg>
