<svg xmlns="http://www.w3.org/2000/svg" xmlns:xlink="http://www.w3.org/1999/xlink" width="503" zoomAndPan="magnify" viewBox="0 0 377.25 91.5" height="122" preserveAspectRatio="xMidYMid meet" version="1.0"><defs><g/></defs><g fill="#000000" fill-opacity="1"><g transform="translate(52.828362, 65.836325)"><g><path d="M 92.046875 -50.609375 C 91.953125 -50.359375 91.851562 -50.109375 91.75 -49.859375 C 90.78125 -47.304688 89.726562 -44.800781 88.59375 -42.34375 C 82.75 -30.195312 76.46875 -18.445312 69.75 -7.09375 C 67.570312 -3.425781 65.34375 0.171875 63.0625 3.703125 C 60.78125 7.242188 58.488281 10.769531 56.1875 14.28125 C 55.644531 15.101562 55.09375 15.925781 54.53125 16.75 C 54.5 16.820312 54.472656 16.875 54.453125 16.90625 C 54.316406 17.15625 54.164062 17.363281 54 17.53125 C 53.832031 17.695312 53.609375 17.78125 53.328125 17.78125 C 53.203125 17.78125 53.070312 17.75 52.9375 17.6875 C 52.800781 17.625 52.6875 17.546875 52.59375 17.453125 C 52.53125 17.367188 52.484375 17.226562 52.453125 17.03125 C 52.421875 16.84375 52.4375 16.695312 52.5 16.59375 C 52.875 15.78125 53.289062 15.007812 53.75 14.28125 C 54.789062 12.59375 55.832031 10.898438 56.875 9.203125 C 58.851562 6.054688 60.789062 2.90625 62.6875 -0.25 C 66.90625 -7.300781 70.9375 -14.492188 74.78125 -21.828125 C 78.632812 -29.171875 82.390625 -36.585938 86.046875 -44.078125 C 87.515625 -46.972656 88.726562 -50.070312 89.6875 -53.375 C 89.875 -53.945312 90.019531 -54.539062 90.125 -55.15625 C 90.238281 -55.769531 90.296875 -56.40625 90.296875 -57.0625 C 90.191406 -58.476562 89.585938 -59.09375 88.484375 -58.90625 C 87.503906 -58.71875 86.582031 -58.410156 85.71875 -57.984375 C 83.664062 -56.992188 81.640625 -55.898438 79.640625 -54.703125 C 68.898438 -48.179688 59.117188 -40.09375 50.296875 -30.4375 C 50.171875 -30.28125 50.03125 -30.125 49.875 -29.96875 C 46.820312 -26.65625 43.796875 -23.3125 40.796875 -19.9375 C 37.796875 -16.570312 34.882812 -13.109375 32.0625 -9.546875 C 31.476562 -8.804688 30.863281 -8.113281 30.21875 -7.46875 C 29.53125 -6.75 28.710938 -6.46875 27.765625 -6.625 C 27.359375 -6.6875 27.023438 -6.882812 26.765625 -7.21875 C 26.515625 -7.5625 26.414062 -7.96875 26.46875 -8.4375 C 26.664062 -9.6875 26.945312 -10.898438 27.3125 -12.078125 C 28.4375 -15.796875 29.640625 -19.46875 30.921875 -23.09375 C 31.097656 -23.65625 31.265625 -24.191406 31.421875 -24.703125 C 31.753906 -26.054688 32.226562 -27.304688 32.84375 -28.453125 C 32.84375 -28.484375 32.828125 -28.5 32.796875 -28.5 C 32.648438 -28.582031 32.5 -28.648438 32.34375 -28.703125 C 32.1875 -28.753906 32.03125 -28.703125 31.875 -28.546875 C 31.320312 -27.929688 30.785156 -27.285156 30.265625 -26.609375 C 26.015625 -20.847656 21.804688 -15.039062 17.640625 -9.1875 C 13.472656 -3.332031 9.40625 2.625 5.4375 8.6875 C 5.09375 9.269531 4.710938 9.742188 4.296875 10.109375 C 3.890625 10.484375 3.34375 10.609375 2.65625 10.484375 C 2.351562 10.398438 2.117188 10.210938 1.953125 9.921875 C 1.785156 9.628906 1.75 9.34375 1.84375 9.0625 C 2.207031 8.238281 2.609375 7.457031 3.046875 6.71875 C 4.273438 4.59375 5.488281 2.460938 6.6875 0.328125 C 9.101562 -3.878906 11.503906 -8.109375 13.890625 -12.359375 C 17.578125 -18.867188 20.867188 -25.722656 23.765625 -32.921875 C 24.898438 -35.691406 25.820312 -38.601562 26.53125 -41.65625 C 26.925781 -43.269531 27.09375 -44.960938 27.03125 -46.734375 C 26.851562 -49.554688 25.914062 -51.570312 24.21875 -52.78125 C 22.53125 -54 20.304688 -54.578125 17.546875 -54.515625 C 14.796875 -54.453125 11.742188 -53.890625 8.390625 -52.828125 C 5.035156 -51.765625 1.597656 -50.359375 -1.921875 -48.609375 C -5.453125 -46.867188 -8.851562 -44.941406 -12.125 -42.828125 C -15.394531 -40.710938 -18.304688 -38.570312 -20.859375 -36.40625 C -23.410156 -34.238281 -25.398438 -32.207031 -26.828125 -30.3125 C -28.316406 -28.207031 -29.585938 -25.898438 -30.640625 -23.390625 C -31.171875 -22.179688 -31.476562 -20.875 -31.5625 -19.46875 C -31.59375 -19.1875 -31.734375 -18.972656 -31.984375 -18.828125 C -32.234375 -18.691406 -32.515625 -18.648438 -32.828125 -18.703125 C -33.316406 -18.859375 -33.625 -19.242188 -33.75 -19.859375 C -33.832031 -20.671875 -33.769531 -21.410156 -33.5625 -22.078125 C -33.09375 -23.773438 -32.476562 -25.378906 -31.71875 -26.890625 C -30.300781 -29.535156 -28.148438 -32.234375 -25.265625 -34.984375 C -22.390625 -37.734375 -19.035156 -40.367188 -15.203125 -42.890625 C -11.367188 -45.421875 -7.367188 -47.675781 -3.203125 -49.65625 C 0.960938 -51.632812 5.035156 -53.171875 9.015625 -54.265625 C 13.003906 -55.367188 16.59375 -55.863281 19.78125 -55.75 C 22.976562 -55.632812 25.5 -54.753906 27.34375 -53.109375 C 29.195312 -51.472656 30.09375 -48.882812 30.03125 -45.34375 C 29.9375 -43.0625 29.582031 -40.894531 28.96875 -38.84375 C 28.070312 -35.820312 27.039062 -32.898438 25.875 -30.078125 C 24.707031 -27.265625 23.460938 -24.507812 22.140625 -21.8125 C 21.742188 -20.96875 21.660156 -20.554688 21.890625 -20.578125 C 22.117188 -20.597656 22.460938 -20.921875 22.921875 -21.546875 C 24.585938 -23.753906 26.253906 -25.929688 27.921875 -28.078125 C 29.046875 -29.523438 30.195312 -30.9375 31.375 -32.3125 C 31.53125 -32.507812 31.6875 -32.703125 31.84375 -32.890625 C 32.507812 -33.710938 33.316406 -34.265625 34.265625 -34.546875 C 34.984375 -34.703125 35.585938 -34.539062 36.078125 -34.0625 C 36.566406 -33.582031 36.734375 -32.867188 36.578125 -31.921875 C 36.546875 -31.828125 36.519531 -31.726562 36.5 -31.625 C 36.238281 -30.394531 35.941406 -29.203125 35.609375 -28.046875 C 34.710938 -25.203125 33.789062 -22.382812 32.84375 -19.59375 C 32.382812 -18.144531 31.921875 -16.679688 31.453125 -15.203125 C 31.359375 -14.992188 31.222656 -14.609375 31.046875 -14.046875 C 30.859375 -13.554688 30.679688 -13.070312 30.515625 -12.59375 C 30.347656 -12.125 30.21875 -11.765625 30.125 -11.515625 C 30.25 -11.609375 31.382812 -12.890625 33.53125 -15.359375 C 36.457031 -18.710938 39.921875 -22.640625 43.921875 -27.140625 C 47.921875 -31.640625 51.054688 -35.078125 53.328125 -37.453125 C 57.535156 -41.691406 61.972656 -45.546875 66.640625 -49.015625 C 71.304688 -52.492188 76.140625 -55.640625 81.140625 -58.453125 C 82.367188 -59.097656 83.632812 -59.675781 84.9375 -60.1875 C 85.21875 -60.289062 85.492188 -60.40625 85.765625 -60.53125 C 86.992188 -61.019531 88.300781 -61.203125 89.6875 -61.078125 C 92.34375 -60.828125 93.554688 -59.148438 93.328125 -56.046875 C 93.171875 -54.109375 92.742188 -52.296875 92.046875 -50.609375 Z M 32.703125 -28.625 C 32.765625 -28.570312 32.8125 -28.53125 32.84375 -28.5 C 32.84375 -28.5 32.84375 -28.484375 32.84375 -28.453125 C 32.875 -28.453125 32.890625 -28.46875 32.890625 -28.5 C 32.828125 -28.53125 32.765625 -28.570312 32.703125 -28.625 Z M 32.703125 -28.625 "/></g></g></g><g fill="#000000" fill-opacity="1"><g transform="translate(131.868601, 65.836325)"><g><path d="M 15.203125 -10.6875 C 15.535156 -10.5 15.566406 -10.039062 15.296875 -9.3125 C 14.890625 -8.78125 14.453125 -8.28125 13.984375 -7.8125 C 13.523438 -7.351562 13.023438 -6.941406 12.484375 -6.578125 C 12.441406 -6.578125 12.421875 -6.566406 12.421875 -6.546875 C 12.054688 -6.296875 11.671875 -6.078125 11.265625 -5.890625 C 7.921875 -4.691406 6.210938 -5.398438 6.140625 -8.015625 C 4.785156 -6.835938 3.878906 -6.113281 3.421875 -5.84375 C 2.316406 -5.1875 1.117188 -4.894531 -0.171875 -4.96875 C -1.117188 -5.019531 -1.765625 -5.304688 -2.109375 -5.828125 C -2.453125 -6.359375 -2.421875 -7.070312 -2.015625 -7.96875 C -1.398438 -9.382812 -0.523438 -10.644531 0.609375 -11.75 C 1.929688 -12.976562 3.40625 -13.960938 5.03125 -14.703125 C 5.894531 -15.140625 6.804688 -15.304688 7.765625 -15.203125 C 8.710938 -15.148438 9.285156 -14.613281 9.484375 -13.59375 C 9.566406 -13.28125 9.488281 -13.003906 9.25 -12.765625 C 8.9375 -12.492188 8.578125 -12.429688 8.171875 -12.578125 C 8.148438 -12.578125 8.113281 -12.582031 8.0625 -12.59375 C 8.007812 -12.613281 7.972656 -12.640625 7.953125 -12.671875 C 7.546875 -13.222656 7.132812 -13.453125 6.71875 -13.359375 C 6.3125 -13.273438 5.875 -13.09375 5.40625 -12.8125 C 3.257812 -11.550781 1.660156 -9.796875 0.609375 -7.546875 C 0.554688 -7.453125 0.519531 -7.34375 0.5 -7.21875 C 0.488281 -7.101562 0.523438 -7.007812 0.609375 -6.9375 C 0.859375 -6.851562 1.132812 -6.867188 1.4375 -6.984375 C 1.75 -7.109375 2.054688 -7.285156 2.359375 -7.515625 C 2.671875 -7.742188 2.929688 -7.9375 3.140625 -8.09375 C 3.171875 -8.132812 3.1875 -8.15625 3.1875 -8.15625 C 4.207031 -9.007812 5.207031 -9.882812 6.1875 -10.78125 C 6.625 -11.238281 7.160156 -11.5 7.796875 -11.5625 C 8.722656 -11.5625 9.109375 -11.144531 8.953125 -10.3125 C 8.867188 -10.007812 8.78125 -9.703125 8.6875 -9.390625 C 8.320312 -8.066406 8.304688 -7.289062 8.640625 -7.0625 C 8.972656 -6.832031 9.484375 -6.832031 10.171875 -7.0625 C 10.867188 -7.289062 11.5625 -7.726562 12.25 -8.375 C 12.945312 -9.03125 13.53125 -9.625 14 -10.15625 C 14.476562 -10.695312 14.878906 -10.875 15.203125 -10.6875 Z M 15.203125 -10.6875 "/></g></g></g><g fill="#000000" fill-opacity="1"><g transform="translate(145.772474, 65.836325)"><g><path d="M 10.0625 -12.875 C 9.9375 -11.914062 9.484375 -11.285156 8.703125 -10.984375 C 7.921875 -10.691406 7.664062 -11.078125 7.9375 -12.140625 C 8.207031 -13.203125 7.726562 -13.472656 6.5 -12.953125 C 5.269531 -12.429688 4.253906 -11.769531 3.453125 -10.96875 C 2.222656 -9.707031 1.132812 -8.351562 0.1875 -6.90625 C 0.09375 -6.78125 0.015625 -6.671875 -0.046875 -6.578125 C -0.328125 -6.179688 -0.601562 -5.800781 -0.875 -5.4375 C -1.0625 -5.175781 -1.273438 -5.015625 -1.515625 -4.953125 C -1.765625 -4.890625 -2.015625 -4.878906 -2.265625 -4.921875 C -2.503906 -4.953125 -2.6875 -5.046875 -2.8125 -5.203125 C -2.9375 -5.359375 -2.953125 -5.539062 -2.859375 -5.75 C -2.703125 -6.125 -2.519531 -6.507812 -2.3125 -6.90625 C -1.050781 -9.238281 0.226562 -11.578125 1.53125 -13.921875 C 1.5625 -13.953125 1.578125 -13.984375 1.578125 -14.015625 C 1.753906 -14.378906 1.96875 -14.710938 2.21875 -15.015625 C 2.5 -15.328125 2.820312 -15.453125 3.1875 -15.390625 C 3.550781 -15.335938 3.796875 -15.125 3.921875 -14.75 C 4.078125 -14.257812 4.207031 -13.984375 4.3125 -13.921875 C 4.425781 -13.859375 4.679688 -13.898438 5.078125 -14.046875 C 5.910156 -14.359375 6.722656 -14.578125 7.515625 -14.703125 C 8.316406 -14.828125 8.972656 -14.796875 9.484375 -14.609375 C 9.992188 -14.421875 10.1875 -13.84375 10.0625 -12.875 Z M 10.0625 -12.875 "/></g></g></g><g fill="#000000" fill-opacity="1"><g transform="translate(156.258044, 65.836325)"><g><path d="M 8.328125 -8.84375 C 7.585938 -7.957031 6.707031 -7.140625 5.6875 -6.390625 C 4.664062 -5.648438 3.507812 -5.148438 2.21875 -4.890625 C 0.9375 -4.640625 -0.0546875 -4.734375 -0.765625 -5.171875 C -1.484375 -5.617188 -1.628906 -6.613281 -1.203125 -8.15625 C -0.640625 -9.75 0.128906 -11.265625 1.109375 -12.703125 C 1.335938 -13.015625 1.660156 -13.234375 2.078125 -13.359375 C 2.378906 -13.429688 2.644531 -13.378906 2.875 -13.203125 C 3.113281 -13.023438 3.203125 -12.804688 3.140625 -12.546875 C 2.929688 -12.035156 2.703125 -11.53125 2.453125 -11.03125 C 2.203125 -10.53125 2.035156 -10.203125 1.953125 -10.046875 C 1.460938 -9.148438 1.117188 -8.210938 0.921875 -7.234375 C 0.921875 -6.671875 1.664062 -6.632812 3.15625 -7.125 C 4.65625 -7.613281 6.109375 -8.507812 7.515625 -9.8125 C 8.929688 -11.125 9.609375 -11.507812 9.546875 -10.96875 C 9.484375 -10.4375 9.078125 -9.726562 8.328125 -8.84375 Z M 4.671875 -15.859375 C 4.609375 -15.796875 4.46875 -15.726562 4.25 -15.65625 C 4.03125 -15.582031 3.796875 -15.523438 3.546875 -15.484375 C 3.304688 -15.453125 3.113281 -15.488281 2.96875 -15.59375 C 2.832031 -15.707031 2.828125 -15.9375 2.953125 -16.28125 C 3.179688 -16.863281 3.414062 -17.375 3.65625 -17.8125 C 3.90625 -18.257812 4.222656 -18.75 4.609375 -19.28125 C 4.859375 -19.507812 5.128906 -19.632812 5.421875 -19.65625 C 5.722656 -19.675781 5.96875 -19.597656 6.15625 -19.421875 C 6.351562 -19.253906 6.410156 -19.015625 6.328125 -18.703125 C 6.023438 -17.597656 5.472656 -16.648438 4.671875 -15.859375 Z M 4.671875 -15.859375 "/></g></g></g><g fill="#000000" fill-opacity="1"><g transform="translate(164.43679, 65.836325)"><g><path d="M 15.203125 -10.6875 C 15.535156 -10.5 15.566406 -10.039062 15.296875 -9.3125 C 14.890625 -8.78125 14.453125 -8.28125 13.984375 -7.8125 C 13.523438 -7.351562 13.023438 -6.941406 12.484375 -6.578125 C 12.441406 -6.578125 12.421875 -6.566406 12.421875 -6.546875 C 12.054688 -6.296875 11.671875 -6.078125 11.265625 -5.890625 C 7.921875 -4.691406 6.210938 -5.398438 6.140625 -8.015625 C 4.785156 -6.835938 3.878906 -6.113281 3.421875 -5.84375 C 2.316406 -5.1875 1.117188 -4.894531 -0.171875 -4.96875 C -1.117188 -5.019531 -1.765625 -5.304688 -2.109375 -5.828125 C -2.453125 -6.359375 -2.421875 -7.070312 -2.015625 -7.96875 C -1.398438 -9.382812 -0.523438 -10.644531 0.609375 -11.75 C 1.929688 -12.976562 3.40625 -13.960938 5.03125 -14.703125 C 5.894531 -15.140625 6.804688 -15.304688 7.765625 -15.203125 C 8.710938 -15.148438 9.285156 -14.613281 9.484375 -13.59375 C 9.566406 -13.28125 9.488281 -13.003906 9.25 -12.765625 C 8.9375 -12.492188 8.578125 -12.429688 8.171875 -12.578125 C 8.148438 -12.578125 8.113281 -12.582031 8.0625 -12.59375 C 8.007812 -12.613281 7.972656 -12.640625 7.953125 -12.671875 C 7.546875 -13.222656 7.132812 -13.453125 6.71875 -13.359375 C 6.3125 -13.273438 5.875 -13.09375 5.40625 -12.8125 C 3.257812 -11.550781 1.660156 -9.796875 0.609375 -7.546875 C 0.554688 -7.453125 0.519531 -7.34375 0.5 -7.21875 C 0.488281 -7.101562 0.523438 -7.007812 0.609375 -6.9375 C 0.859375 -6.851562 1.132812 -6.867188 1.4375 -6.984375 C 1.75 -7.109375 2.054688 -7.285156 2.359375 -7.515625 C 2.671875 -7.742188 2.929688 -7.9375 3.140625 -8.09375 C 3.171875 -8.132812 3.1875 -8.15625 3.1875 -8.15625 C 4.207031 -9.007812 5.207031 -9.882812 6.1875 -10.78125 C 6.625 -11.238281 7.160156 -11.5 7.796875 -11.5625 C 8.722656 -11.5625 9.109375 -11.144531 8.953125 -10.3125 C 8.867188 -10.007812 8.78125 -9.703125 8.6875 -9.390625 C 8.320312 -8.066406 8.304688 -7.289062 8.640625 -7.0625 C 8.972656 -6.832031 9.484375 -6.832031 10.171875 -7.0625 C 10.867188 -7.289062 11.5625 -7.726562 12.25 -8.375 C 12.945312 -9.03125 13.53125 -9.625 14 -10.15625 C 14.476562 -10.695312 14.878906 -10.875 15.203125 -10.6875 Z M 15.203125 -10.6875 "/></g></g></g><g fill="#000000" fill-opacity="1"><g transform="translate(178.340663, 65.836325)"><g><path d="M 16.609375 -10.46875 C 16.835938 -10.1875 16.554688 -9.675781 15.765625 -8.9375 C 14.984375 -8.195312 14.148438 -7.570312 13.265625 -7.0625 C 12.390625 -6.5625 11.375 -6.0625 10.21875 -5.5625 C 9.445312 -5.21875 8.625 -5.101562 7.75 -5.21875 C 6.882812 -5.332031 6.453125 -5.859375 6.453125 -6.796875 C 6.453125 -7.734375 6.671875 -8.660156 7.109375 -9.578125 C 7.546875 -10.535156 7.640625 -11.023438 7.390625 -11.046875 C 7.148438 -11.078125 6.644531 -10.847656 5.875 -10.359375 C 3.875 -9.046875 2.015625 -7.539062 0.296875 -5.84375 C -0.171875 -5.289062 -0.757812 -4.984375 -1.46875 -4.921875 C -1.832031 -4.921875 -2.113281 -5.035156 -2.3125 -5.265625 C -2.519531 -5.503906 -2.546875 -5.753906 -2.390625 -6.015625 C -1.160156 -8.296875 0.0820312 -10.546875 1.34375 -12.765625 C 1.625 -13.234375 2.039062 -13.519531 2.59375 -13.625 C 2.832031 -13.675781 3.050781 -13.601562 3.25 -13.40625 C 3.457031 -13.21875 3.5625 -13.003906 3.5625 -12.765625 C 3.539062 -12.546875 3.453125 -12.28125 3.296875 -11.96875 C 3.222656 -11.789062 3.15625 -11.617188 3.09375 -11.453125 C 3.03125 -11.285156 3.007812 -11.144531 3.03125 -11.03125 C 3.050781 -10.914062 3.140625 -10.878906 3.296875 -10.921875 C 3.503906 -11.035156 3.710938 -11.15625 3.921875 -11.28125 C 4.453125 -11.59375 4.960938 -11.890625 5.453125 -12.171875 C 5.890625 -12.421875 6.34375 -12.640625 6.8125 -12.828125 C 7.289062 -13.023438 7.789062 -13.160156 8.3125 -13.234375 C 9.144531 -13.285156 9.734375 -13.09375 10.078125 -12.65625 C 10.429688 -12.226562 10.476562 -11.628906 10.21875 -10.859375 C 9.9375 -10.160156 9.640625 -9.46875 9.328125 -8.78125 C 8.953125 -8.144531 8.890625 -7.65625 9.140625 -7.3125 C 9.390625 -6.976562 10.554688 -7.363281 12.640625 -8.46875 L 14.21875 -9.390625 C 15.695312 -10.347656 16.492188 -10.707031 16.609375 -10.46875 Z M 16.609375 -10.46875 "/></g></g></g><g fill="#000000" fill-opacity="1"><g transform="translate(193.712515, 65.836325)"><g><path d="M 11.953125 -8.046875 C 11.140625 -7.253906 10.195312 -6.570312 9.125 -6 C 8.050781 -5.4375 7.148438 -5.066406 6.421875 -4.890625 C 5.691406 -4.722656 4.941406 -4.625 4.171875 -4.59375 C 2.941406 -4.539062 1.8125 -4.707031 0.78125 -5.09375 C -0.914062 -5.78125 -1.503906 -7.085938 -0.984375 -9.015625 C -0.492188 -10.679688 0.492188 -11.984375 1.984375 -12.921875 C 3.484375 -13.859375 5.03125 -14.3125 6.625 -14.28125 C 6.625 -14.28125 6.640625 -14.28125 6.671875 -14.28125 C 7.078125 -14.3125 7.460938 -14.285156 7.828125 -14.203125 C 8.441406 -13.972656 8.832031 -13.609375 9 -13.109375 C 9.164062 -12.609375 9.050781 -12.050781 8.65625 -11.4375 C 7.757812 -10.070312 6.546875 -9.316406 5.015625 -9.171875 C 3.992188 -9.066406 3.007812 -9.113281 2.0625 -9.3125 C 1.875 -9.34375 1.707031 -9.289062 1.5625 -9.15625 C 1.425781 -9.03125 1.347656 -8.878906 1.328125 -8.703125 C 1.046875 -7.503906 1.414062 -6.734375 2.4375 -6.390625 C 3.695312 -5.960938 5.003906 -5.960938 6.359375 -6.390625 C 7.921875 -6.878906 9.40625 -7.800781 10.8125 -9.15625 C 12.226562 -10.519531 13.046875 -11.15625 13.265625 -11.0625 C 13.484375 -10.96875 13.550781 -10.707031 13.46875 -10.28125 C 13.269531 -9.59375 12.765625 -8.847656 11.953125 -8.046875 Z M 3.015625 -11.4375 C 2.929688 -11.332031 2.875 -11.21875 2.84375 -11.09375 C 2.8125 -10.976562 2.859375 -10.875 2.984375 -10.78125 C 3.472656 -10.5 4.003906 -10.394531 4.578125 -10.46875 C 5.148438 -10.550781 5.632812 -10.769531 6.03125 -11.125 C 6.425781 -11.476562 6.597656 -11.914062 6.546875 -12.4375 C 6.503906 -12.613281 6.40625 -12.726562 6.25 -12.78125 C 6.09375 -12.832031 5.9375 -12.84375 5.78125 -12.8125 C 4.75 -12.632812 3.828125 -12.175781 3.015625 -11.4375 Z M 3.015625 -11.4375 "/></g></g></g><g fill="#000000" fill-opacity="1"><g transform="translate(205.91772, 65.836325)"><g/></g></g><g fill="#000000" fill-opacity="1"><g transform="translate(221.771903, 65.836325)"><g><path d="M 92.046875 -50.609375 C 91.953125 -50.359375 91.851562 -50.109375 91.75 -49.859375 C 90.78125 -47.304688 89.726562 -44.800781 88.59375 -42.34375 C 82.75 -30.195312 76.46875 -18.445312 69.75 -7.09375 C 67.570312 -3.425781 65.34375 0.171875 63.0625 3.703125 C 60.78125 7.242188 58.488281 10.769531 56.1875 14.28125 C 55.644531 15.101562 55.09375 15.925781 54.53125 16.75 C 54.5 16.820312 54.472656 16.875 54.453125 16.90625 C 54.316406 17.15625 54.164062 17.363281 54 17.53125 C 53.832031 17.695312 53.609375 17.78125 53.328125 17.78125 C 53.203125 17.78125 53.070312 17.75 52.9375 17.6875 C 52.800781 17.625 52.6875 17.546875 52.59375 17.453125 C 52.53125 17.367188 52.484375 17.226562 52.453125 17.03125 C 52.421875 16.84375 52.4375 16.695312 52.5 16.59375 C 52.875 15.78125 53.289062 15.007812 53.75 14.28125 C 54.789062 12.59375 55.832031 10.898438 56.875 9.203125 C 58.851562 6.054688 60.789062 2.90625 62.6875 -0.25 C 66.90625 -7.300781 70.9375 -14.492188 74.78125 -21.828125 C 78.632812 -29.171875 82.390625 -36.585938 86.046875 -44.078125 C 87.515625 -46.972656 88.726562 -50.070312 89.6875 -53.375 C 89.875 -53.945312 90.019531 -54.539062 90.125 -55.15625 C 90.238281 -55.769531 90.296875 -56.40625 90.296875 -57.0625 C 90.191406 -58.476562 89.585938 -59.09375 88.484375 -58.90625 C 87.503906 -58.71875 86.582031 -58.410156 85.71875 -57.984375 C 83.664062 -56.992188 81.640625 -55.898438 79.640625 -54.703125 C 68.898438 -48.179688 59.117188 -40.09375 50.296875 -30.4375 C 50.171875 -30.28125 50.03125 -30.125 49.875 -29.96875 C 46.820312 -26.65625 43.796875 -23.3125 40.796875 -19.9375 C 37.796875 -16.570312 34.882812 -13.109375 32.0625 -9.546875 C 31.476562 -8.804688 30.863281 -8.113281 30.21875 -7.46875 C 29.53125 -6.75 28.710938 -6.46875 27.765625 -6.625 C 27.359375 -6.6875 27.023438 -6.882812 26.765625 -7.21875 C 26.515625 -7.5625 26.414062 -7.96875 26.46875 -8.4375 C 26.664062 -9.6875 26.945312 -10.898438 27.3125 -12.078125 C 28.4375 -15.796875 29.640625 -19.46875 30.921875 -23.09375 C 31.097656 -23.65625 31.265625 -24.191406 31.421875 -24.703125 C 31.753906 -26.054688 32.226562 -27.304688 32.84375 -28.453125 C 32.84375 -28.484375 32.828125 -28.5 32.796875 -28.5 C 32.648438 -28.582031 32.5 -28.648438 32.34375 -28.703125 C 32.1875 -28.753906 32.03125 -28.703125 31.875 -28.546875 C 31.320312 -27.929688 30.785156 -27.285156 30.265625 -26.609375 C 26.015625 -20.847656 21.804688 -15.039062 17.640625 -9.1875 C 13.472656 -3.332031 9.40625 2.625 5.4375 8.6875 C 5.09375 9.269531 4.710938 9.742188 4.296875 10.109375 C 3.890625 10.484375 3.34375 10.609375 2.65625 10.484375 C 2.351562 10.398438 2.117188 10.210938 1.953125 9.921875 C 1.785156 9.628906 1.75 9.34375 1.84375 9.0625 C 2.207031 8.238281 2.609375 7.457031 3.046875 6.71875 C 4.273438 4.59375 5.488281 2.460938 6.6875 0.328125 C 9.101562 -3.878906 11.503906 -8.109375 13.890625 -12.359375 C 17.578125 -18.867188 20.867188 -25.722656 23.765625 -32.921875 C 24.898438 -35.691406 25.820312 -38.601562 26.53125 -41.65625 C 26.925781 -43.269531 27.09375 -44.960938 27.03125 -46.734375 C 26.851562 -49.554688 25.914062 -51.570312 24.21875 -52.78125 C 22.53125 -54 20.304688 -54.578125 17.546875 -54.515625 C 14.796875 -54.453125 11.742188 -53.890625 8.390625 -52.828125 C 5.035156 -51.765625 1.597656 -50.359375 -1.921875 -48.609375 C -5.453125 -46.867188 -8.851562 -44.941406 -12.125 -42.828125 C -15.394531 -40.710938 -18.304688 -38.570312 -20.859375 -36.40625 C -23.410156 -34.238281 -25.398438 -32.207031 -26.828125 -30.3125 C -28.316406 -28.207031 -29.585938 -25.898438 -30.640625 -23.390625 C -31.171875 -22.179688 -31.476562 -20.875 -31.5625 -19.46875 C -31.59375 -19.1875 -31.734375 -18.972656 -31.984375 -18.828125 C -32.234375 -18.691406 -32.515625 -18.648438 -32.828125 -18.703125 C -33.316406 -18.859375 -33.625 -19.242188 -33.75 -19.859375 C -33.832031 -20.671875 -33.769531 -21.410156 -33.5625 -22.078125 C -33.09375 -23.773438 -32.476562 -25.378906 -31.71875 -26.890625 C -30.300781 -29.535156 -28.148438 -32.234375 -25.265625 -34.984375 C -22.390625 -37.734375 -19.035156 -40.367188 -15.203125 -42.890625 C -11.367188 -45.421875 -7.367188 -47.675781 -3.203125 -49.65625 C 0.960938 -51.632812 5.035156 -53.171875 9.015625 -54.265625 C 13.003906 -55.367188 16.59375 -55.863281 19.78125 -55.75 C 22.976562 -55.632812 25.5 -54.753906 27.34375 -53.109375 C 29.195312 -51.472656 30.09375 -48.882812 30.03125 -45.34375 C 29.9375 -43.0625 29.582031 -40.894531 28.96875 -38.84375 C 28.070312 -35.820312 27.039062 -32.898438 25.875 -30.078125 C 24.707031 -27.265625 23.460938 -24.507812 22.140625 -21.8125 C 21.742188 -20.96875 21.660156 -20.554688 21.890625 -20.578125 C 22.117188 -20.597656 22.460938 -20.921875 22.921875 -21.546875 C 24.585938 -23.753906 26.253906 -25.929688 27.921875 -28.078125 C 29.046875 -29.523438 30.195312 -30.9375 31.375 -32.3125 C 31.53125 -32.507812 31.6875 -32.703125 31.84375 -32.890625 C 32.507812 -33.710938 33.316406 -34.265625 34.265625 -34.546875 C 34.984375 -34.703125 35.585938 -34.539062 36.078125 -34.0625 C 36.566406 -33.582031 36.734375 -32.867188 36.578125 -31.921875 C 36.546875 -31.828125 36.519531 -31.726562 36.5 -31.625 C 36.238281 -30.394531 35.941406 -29.203125 35.609375 -28.046875 C 34.710938 -25.203125 33.789062 -22.382812 32.84375 -19.59375 C 32.382812 -18.144531 31.921875 -16.679688 31.453125 -15.203125 C 31.359375 -14.992188 31.222656 -14.609375 31.046875 -14.046875 C 30.859375 -13.554688 30.679688 -13.070312 30.515625 -12.59375 C 30.347656 -12.125 30.21875 -11.765625 30.125 -11.515625 C 30.25 -11.609375 31.382812 -12.890625 33.53125 -15.359375 C 36.457031 -18.710938 39.921875 -22.640625 43.921875 -27.140625 C 47.921875 -31.640625 51.054688 -35.078125 53.328125 -37.453125 C 57.535156 -41.691406 61.972656 -45.546875 66.640625 -49.015625 C 71.304688 -52.492188 76.140625 -55.640625 81.140625 -58.453125 C 82.367188 -59.097656 83.632812 -59.675781 84.9375 -60.1875 C 85.21875 -60.289062 85.492188 -60.40625 85.765625 -60.53125 C 86.992188 -61.019531 88.300781 -61.203125 89.6875 -61.078125 C 92.34375 -60.828125 93.554688 -59.148438 93.328125 -56.046875 C 93.171875 -54.109375 92.742188 -52.296875 92.046875 -50.609375 Z M 32.703125 -28.625 C 32.765625 -28.570312 32.8125 -28.53125 32.84375 -28.5 C 32.84375 -28.5 32.84375 -28.484375 32.84375 -28.453125 C 32.875 -28.453125 32.890625 -28.46875 32.890625 -28.5 C 32.828125 -28.53125 32.765625 -28.570312 32.703125 -28.625 Z M 32.703125 -28.625 "/></g></g></g><g fill="#000000" fill-opacity="1"><g transform="translate(300.812131, 65.836325)"><g><path d="M 3.328125 -4.96875 L 3.265625 -4.96875 C 1.242188 -5 -0.0859375 -5.453125 -0.734375 -6.328125 C -1.378906 -7.203125 -1.351562 -8.363281 -0.65625 -9.8125 C -0.0625 -10.914062 0.679688 -11.878906 1.578125 -12.703125 C 1.878906 -12.984375 2.191406 -13.207031 2.515625 -13.375 C 2.835938 -13.539062 3.203125 -13.625 3.609375 -13.625 C 3.847656 -13.675781 4.117188 -13.632812 4.421875 -13.5 C 4.523438 -13.476562 4.625 -13.445312 4.71875 -13.40625 C 4.957031 -13.445312 5.1875 -13.519531 5.40625 -13.625 C 5.46875 -13.675781 5.546875 -13.710938 5.640625 -13.734375 C 6.097656 -13.921875 6.585938 -14 7.109375 -13.96875 C 7.316406 -13.96875 7.535156 -13.96875 7.765625 -13.96875 C 8.585938 -13.84375 9.207031 -13.492188 9.625 -12.921875 C 10.039062 -12.359375 10.1875 -11.671875 10.0625 -10.859375 C 10 -10.367188 9.847656 -9.910156 9.609375 -9.484375 C 7.992188 -6.597656 5.941406 -5.09375 3.453125 -4.96875 Z M 6.65625 -12.484375 C 5.539062 -12.523438 4.550781 -12.203125 3.6875 -11.515625 C 2.832031 -10.835938 2.195312 -10.054688 1.78125 -9.171875 C 1.363281 -8.296875 1.25 -7.578125 1.4375 -7.015625 C 1.625 -6.453125 2.207031 -6.296875 3.1875 -6.546875 C 4.289062 -6.878906 5.265625 -7.503906 6.109375 -8.421875 C 6.953125 -9.347656 7.46875 -10.226562 7.65625 -11.0625 C 7.851562 -11.894531 7.519531 -12.367188 6.65625 -12.484375 Z M 6.65625 -12.484375 "/></g></g></g><g fill="#000000" fill-opacity="1"><g transform="translate(311.947813, 65.836325)"><g><path d="M 16.609375 -10.46875 C 16.835938 -10.1875 16.554688 -9.675781 15.765625 -8.9375 C 14.984375 -8.195312 14.148438 -7.570312 13.265625 -7.0625 C 12.390625 -6.5625 11.375 -6.0625 10.21875 -5.5625 C 9.445312 -5.21875 8.625 -5.101562 7.75 -5.21875 C 6.882812 -5.332031 6.453125 -5.859375 6.453125 -6.796875 C 6.453125 -7.734375 6.671875 -8.660156 7.109375 -9.578125 C 7.546875 -10.535156 7.640625 -11.023438 7.390625 -11.046875 C 7.148438 -11.078125 6.644531 -10.847656 5.875 -10.359375 C 3.875 -9.046875 2.015625 -7.539062 0.296875 -5.84375 C -0.171875 -5.289062 -0.757812 -4.984375 -1.46875 -4.921875 C -1.832031 -4.921875 -2.113281 -5.035156 -2.3125 -5.265625 C -2.519531 -5.503906 -2.546875 -5.753906 -2.390625 -6.015625 C -1.160156 -8.296875 0.0820312 -10.546875 1.34375 -12.765625 C 1.625 -13.234375 2.039062 -13.519531 2.59375 -13.625 C 2.832031 -13.675781 3.050781 -13.601562 3.25 -13.40625 C 3.457031 -13.21875 3.5625 -13.003906 3.5625 -12.765625 C 3.539062 -12.546875 3.453125 -12.28125 3.296875 -11.96875 C 3.222656 -11.789062 3.15625 -11.617188 3.09375 -11.453125 C 3.03125 -11.285156 3.007812 -11.144531 3.03125 -11.03125 C 3.050781 -10.914062 3.140625 -10.878906 3.296875 -10.921875 C 3.503906 -11.035156 3.710938 -11.15625 3.921875 -11.28125 C 4.453125 -11.59375 4.960938 -11.890625 5.453125 -12.171875 C 5.890625 -12.421875 6.34375 -12.640625 6.8125 -12.828125 C 7.289062 -13.023438 7.789062 -13.160156 8.3125 -13.234375 C 9.144531 -13.285156 9.734375 -13.09375 10.078125 -12.65625 C 10.429688 -12.226562 10.476562 -11.628906 10.21875 -10.859375 C 9.9375 -10.160156 9.640625 -9.46875 9.328125 -8.78125 C 8.953125 -8.144531 8.890625 -7.65625 9.140625 -7.3125 C 9.390625 -6.976562 10.554688 -7.363281 12.640625 -8.46875 L 14.21875 -9.390625 C 15.695312 -10.347656 16.492188 -10.707031 16.609375 -10.46875 Z M 16.609375 -10.46875 "/></g></g></g><g fill="#000000" fill-opacity="1"><g transform="translate(327.319654, 65.836325)"><g><path d="M 8.328125 -8.84375 C 7.585938 -7.957031 6.707031 -7.140625 5.6875 -6.390625 C 4.664062 -5.648438 3.507812 -5.148438 2.21875 -4.890625 C 0.9375 -4.640625 -0.0546875 -4.734375 -0.765625 -5.171875 C -1.484375 -5.617188 -1.628906 -6.613281 -1.203125 -8.15625 C -0.640625 -9.75 0.128906 -11.265625 1.109375 -12.703125 C 1.335938 -13.015625 1.660156 -13.234375 2.078125 -13.359375 C 2.378906 -13.429688 2.644531 -13.378906 2.875 -13.203125 C 3.113281 -13.023438 3.203125 -12.804688 3.140625 -12.546875 C 2.929688 -12.035156 2.703125 -11.53125 2.453125 -11.03125 C 2.203125 -10.53125 2.035156 -10.203125 1.953125 -10.046875 C 1.460938 -9.148438 1.117188 -8.210938 0.921875 -7.234375 C 0.921875 -6.671875 1.664062 -6.632812 3.15625 -7.125 C 4.65625 -7.613281 6.109375 -8.507812 7.515625 -9.8125 C 8.929688 -11.125 9.609375 -11.507812 9.546875 -10.96875 C 9.484375 -10.4375 9.078125 -9.726562 8.328125 -8.84375 Z M 4.671875 -15.859375 C 4.609375 -15.796875 4.46875 -15.726562 4.25 -15.65625 C 4.03125 -15.582031 3.796875 -15.523438 3.546875 -15.484375 C 3.304688 -15.453125 3.113281 -15.488281 2.96875 -15.59375 C 2.832031 -15.707031 2.828125 -15.9375 2.953125 -16.28125 C 3.179688 -16.863281 3.414062 -17.375 3.65625 -17.8125 C 3.90625 -18.257812 4.222656 -18.75 4.609375 -19.28125 C 4.859375 -19.507812 5.128906 -19.632812 5.421875 -19.65625 C 5.722656 -19.675781 5.96875 -19.597656 6.15625 -19.421875 C 6.351562 -19.253906 6.410156 -19.015625 6.328125 -18.703125 C 6.023438 -17.597656 5.472656 -16.648438 4.671875 -15.859375 Z M 4.671875 -15.859375 "/></g></g></g><g fill="#000000" fill-opacity="1"><g transform="translate(335.498411, 65.836325)"><g><path d="M 15.125 -10.921875 C 15.1875 -10.921875 15.265625 -10.90625 15.359375 -10.875 C 15.453125 -10.84375 15.523438 -10.796875 15.578125 -10.734375 C 15.773438 -10.554688 15.796875 -10.34375 15.640625 -10.09375 C 15.453125 -9.882812 15.265625 -9.703125 15.078125 -9.546875 C 14.003906 -8.546875 12.8125 -7.710938 11.5 -7.046875 C 9.425781 -5.992188 7.144531 -5.457031 4.65625 -5.4375 C 3.726562 -5.40625 2.773438 -5.554688 1.796875 -5.890625 C 0.015625 -6.585938 -0.707031 -7.882812 -0.375 -9.78125 C 0.03125 -11.519531 1.015625 -12.96875 2.578125 -14.125 C 4.140625 -15.28125 5.816406 -15.78125 7.609375 -15.625 C 7.941406 -15.570312 8.28125 -15.492188 8.625 -15.390625 C 8.925781 -15.265625 9.15625 -15.078125 9.3125 -14.828125 C 9.46875 -14.585938 9.484375 -14.390625 9.359375 -14.234375 C 9.015625 -13.878906 8.628906 -13.789062 8.203125 -13.96875 C 7.554688 -14.25 6.960938 -14.328125 6.421875 -14.203125 C 5.890625 -14.078125 5.347656 -13.78125 4.796875 -13.3125 C 4.265625 -12.90625 3.691406 -12.316406 3.078125 -11.546875 C 2.460938 -10.785156 2.070312 -10.007812 1.90625 -9.21875 C 1.738281 -8.4375 2.085938 -7.800781 2.953125 -7.3125 C 3.929688 -6.882812 4.929688 -6.78125 5.953125 -7 C 8.503906 -7.519531 10.867188 -8.488281 13.046875 -9.90625 C 13.242188 -10 13.414062 -10.109375 13.5625 -10.234375 C 13.800781 -10.410156 14.039062 -10.554688 14.28125 -10.671875 C 14.53125 -10.796875 14.8125 -10.878906 15.125 -10.921875 Z M 15.125 -10.921875 "/></g></g></g><g fill="#000000" fill-opacity="1"><g transform="translate(349.486168, 65.836325)"><g><path d="M 8.328125 -8.84375 C 7.585938 -7.957031 6.707031 -7.140625 5.6875 -6.390625 C 4.664062 -5.648438 3.507812 -5.148438 2.21875 -4.890625 C 0.9375 -4.640625 -0.0546875 -4.734375 -0.765625 -5.171875 C -1.484375 -5.617188 -1.628906 -6.613281 -1.203125 -8.15625 C -0.640625 -9.75 0.128906 -11.265625 1.109375 -12.703125 C 1.335938 -13.015625 1.660156 -13.234375 2.078125 -13.359375 C 2.378906 -13.429688 2.644531 -13.378906 2.875 -13.203125 C 3.113281 -13.023438 3.203125 -12.804688 3.140625 -12.546875 C 2.929688 -12.035156 2.703125 -11.53125 2.453125 -11.03125 C 2.203125 -10.53125 2.035156 -10.203125 1.953125 -10.046875 C 1.460938 -9.148438 1.117188 -8.210938 0.921875 -7.234375 C 0.921875 -6.671875 1.664062 -6.632812 3.15625 -7.125 C 4.65625 -7.613281 6.109375 -8.507812 7.515625 -9.8125 C 8.929688 -11.125 9.609375 -11.507812 9.546875 -10.96875 C 9.484375 -10.4375 9.078125 -9.726562 8.328125 -8.84375 Z M 4.671875 -15.859375 C 4.609375 -15.796875 4.46875 -15.726562 4.25 -15.65625 C 4.03125 -15.582031 3.796875 -15.523438 3.546875 -15.484375 C 3.304688 -15.453125 3.113281 -15.488281 2.96875 -15.59375 C 2.832031 -15.707031 2.828125 -15.9375 2.953125 -16.28125 C 3.179688 -16.863281 3.414062 -17.375 3.65625 -17.8125 C 3.90625 -18.257812 4.222656 -18.75 4.609375 -19.28125 C 4.859375 -19.507812 5.128906 -19.632812 5.421875 -19.65625 C 5.722656 -19.675781 5.96875 -19.597656 6.15625 -19.421875 C 6.351562 -19.253906 6.410156 -19.015625 6.328125 -18.703125 C 6.023438 -17.597656 5.472656 -16.648438 4.671875 -15.859375 Z M 4.671875 -15.859375 "/></g></g></g></svg>