<svg xmlns="http://www.w3.org/2000/svg" xmlns:xlink="http://www.w3.org/1999/xlink" width="1280" zoomAndPan="magnify" viewBox="0 0 960 96.749999" height="129" preserveAspectRatio="xMidYMid meet" version="1.0"><defs><clipPath id="1f0b3cc4b5"><path d="M 1.238281 4 L 958.761719 4 L 958.761719 96.5 L 1.238281 96.5 Z M 1.238281 4 " clip-rule="nonzero"/></clipPath></defs><g clip-path="url(#1f0b3cc4b5)"><path fill="#a38a8a" d="M 1.238281 83.101562 L 42.789062 91.136719 C 84.339844 99.308594 167.445312 115.375 250.546875 104.847656 C 333.648438 94.183594 416.75 56.785156 499.851562 33.242188 C 582.953125 9.695312 666.054688 0 749.160156 6.925781 C 832.261719 13.851562 915.363281 37.394531 998.464844 69.25 C 1081.566406 101.109375 1164.667969 141.273438 1206.21875 161.355469 L 1247.773438 181.441406 L 1247.773438 427.976562 L 1206.21875 427.976562 C 1164.667969 427.976562 1081.566406 427.976562 998.464844 427.976562 C 915.363281 427.976562 832.261719 427.976562 749.160156 427.976562 C 666.054688 427.976562 582.953125 427.976562 499.851562 427.976562 C 416.75 427.976562 333.648438 427.976562 250.546875 427.976562 C 167.445312 427.976562 84.339844 427.976562 42.789062 427.976562 L 1.238281 427.976562 Z M 1.238281 83.101562 " fill-opacity="1" fill-rule="nonzero"/></g></svg>