<svg xmlns="http://www.w3.org/2000/svg" xmlns:xlink="http://www.w3.org/1999/xlink" width="1280" zoomAndPan="magnify" viewBox="0 0 960 96.749999" height="129" preserveAspectRatio="xMidYMid meet" version="1.0"><defs><clipPath id="5de93d698d"><path d="M 1.496094 4 L 958.761719 4 L 958.761719 96.5 L 1.496094 96.5 Z M 1.496094 4 " clip-rule="nonzero"/></clipPath></defs><g clip-path="url(#5de93d698d)"><path fill="#e4c9e5" d="M 1247.773438 83.101562 L 1206.21875 91.136719 C 1164.667969 99.308594 1081.566406 115.375 998.464844 104.847656 C 915.363281 94.183594 832.261719 56.785156 749.160156 33.242188 C 666.054688 9.695312 582.953125 0 499.851562 6.925781 C 416.75 13.851562 333.648438 37.394531 250.546875 69.25 C 167.445312 101.109375 84.339844 141.273438 42.789062 161.355469 L 1.238281 181.441406 L 1.238281 427.976562 L 42.789062 427.976562 C 84.339844 427.976562 167.445312 427.976562 250.546875 427.976562 C 333.648438 427.976562 416.75 427.976562 499.851562 427.976562 C 582.953125 427.976562 666.054688 427.976562 749.160156 427.976562 C 832.261719 427.976562 915.363281 427.976562 998.464844 427.976562 C 1081.566406 427.976562 1164.667969 427.976562 1206.21875 427.976562 L 1247.773438 427.976562 Z M 1247.773438 83.101562 " fill-opacity="1" fill-rule="nonzero"/></g></svg>