<svg xmlns="http://www.w3.org/2000/svg" xmlns:xlink="http://www.w3.org/1999/xlink" width="1280" zoomAndPan="magnify" viewBox="0 0 960 96.749999" height="129" preserveAspectRatio="xMidYMid meet" version="1.0"><defs><clipPath id="28947060a5"><path d="M 1.238281 4 L 958.492188 4 L 958.492188 96.5 L 1.238281 96.5 Z M 1.238281 4 " clip-rule="nonzero"/></clipPath></defs><g clip-path="url(#28947060a5)"><path fill="#b79f91" d="M 958.75 83.101562 L 917.199219 91.136719 C 875.648438 99.308594 792.542969 115.375 709.441406 104.847656 C 626.339844 94.183594 543.238281 56.785156 460.136719 33.242188 C 377.035156 9.695312 293.933594 0 210.828125 6.925781 C 127.726562 13.851562 44.625 37.394531 -38.476562 69.25 C -121.578125 101.109375 -204.679688 141.273438 -246.230469 161.355469 L -287.785156 181.441406 L -287.785156 427.976562 L -246.230469 427.976562 C -204.679688 427.976562 -121.578125 427.976562 -38.476562 427.976562 C 44.625 427.976562 127.726562 427.976562 210.828125 427.976562 C 293.933594 427.976562 377.035156 427.976562 460.136719 427.976562 C 543.238281 427.976562 626.339844 427.976562 709.441406 427.976562 C 792.542969 427.976562 875.648438 427.976562 917.199219 427.976562 L 958.75 427.976562 Z M 958.75 83.101562 " fill-opacity="1" fill-rule="nonzero"/></g></svg>